<svg width="34" height="34" viewBox="0 0 34 34" fill="none" xmlns="http://www.w3.org/2000/svg">
<circle cx="17" cy="17" r="17" fill="white"/>
<path d="M25.8448 24.2186C24.5359 21.9559 22.519 20.3334 20.1652 19.5643C21.3295 18.8711 22.2341 17.815 22.74 16.558C23.246 15.301 23.3253 13.9127 22.9659 12.6062C22.6065 11.2998 21.8281 10.1474 20.7504 9.32613C19.6726 8.50485 18.3551 8.06006 17.0001 8.06006C15.6451 8.06006 14.3275 8.50485 13.2498 9.32613C12.172 10.1474 11.3937 11.2998 11.0342 12.6062C10.6748 13.9127 10.7542 15.301 11.2601 16.558C11.7661 17.815 12.6707 18.8711 13.835 19.5643C11.4812 20.3326 9.46422 21.9551 8.15539 24.2186C8.1074 24.2969 8.07556 24.384 8.06176 24.4748C8.04797 24.5655 8.05249 24.6581 8.07506 24.7471C8.09764 24.8361 8.1378 24.9197 8.1932 24.9929C8.24859 25.0661 8.31809 25.1275 8.39759 25.1734C8.47708 25.2193 8.56497 25.2488 8.65607 25.2603C8.74717 25.2717 8.83963 25.2647 8.92799 25.2398C9.01635 25.2149 9.09883 25.1725 9.17056 25.1152C9.24229 25.0579 9.30182 24.9868 9.34563 24.9061C10.9647 22.108 13.8264 20.4374 17.0001 20.4374C20.1738 20.4374 23.0355 22.108 24.6545 24.9061C24.6983 24.9868 24.7579 25.0579 24.8296 25.1152C24.9013 25.1725 24.9838 25.2149 25.0722 25.2398C25.1605 25.2647 25.253 25.2717 25.3441 25.2603C25.4352 25.2488 25.5231 25.2193 25.6026 25.1734C25.6821 25.1275 25.7516 25.0661 25.807 24.9929C25.8624 24.9197 25.9025 24.8361 25.9251 24.7471C25.9477 24.6581 25.9522 24.5655 25.9384 24.4748C25.9246 24.384 25.8928 24.2969 25.8448 24.2186ZM12.1876 14.2499C12.1876 13.2981 12.4698 12.3676 12.9986 11.5762C13.5274 10.7848 14.279 10.168 15.1584 9.80373C16.0378 9.43948 17.0054 9.34418 17.939 9.52987C18.8725 9.71556 19.73 10.1739 20.403 10.8469C21.0761 11.52 21.5344 12.3775 21.7201 13.311C21.9058 14.2446 21.8105 15.2122 21.4462 16.0916C21.082 16.9709 20.4652 17.7225 19.6738 18.2513C18.8823 18.7801 17.9519 19.0624 17.0001 19.0624C15.7241 19.061 14.5009 18.5536 13.5986 17.6513C12.6964 16.7491 12.1889 15.5258 12.1876 14.2499Z" fill="#253A67"/>
</svg>
