<svg width="24" height="24" viewBox="0 0 24 24" fill="none" xmlns="http://www.w3.org/2000/svg">
<path d="M10.0556 6.16667V7.61111H6.44444V15.5556H14.3889V11.9444H15.8333V16.2778C15.8333 16.4693 15.7572 16.653 15.6218 16.7885C15.4864 16.9239 15.3027 17 15.1111 17H5.72222C5.53068 17 5.34698 16.9239 5.21153 16.7885C5.07609 16.653 5 16.4693 5 16.2778V6.88889C5 6.69734 5.07609 6.51364 5.21153 6.3782C5.34698 6.24276 5.53068 6.16667 5.72222 6.16667H10.0556ZM18 4V9.77778H16.5556V6.46494L10.9273 12.0939L9.90606 11.0727L15.5336 5.44444H12.2222V4H18Z" fill="#FCFCFC"/>
</svg>
